<svg height="64" viewBox="0 0 64 64" width="64" xmlns="http://www.w3.org/2000/svg" xmlns:xlink="http://www.w3.org/1999/xlink"><defs><path id="a" d="m47.494 38.28c-.354 0-.679-.137-.922-.355.083-.713.14-1.437.148-2.17a1.38 1.38 0 0 1 .774-.24c.76 0 1.382.62 1.382 1.385 0 .768-.622 1.38-1.382 1.38m-30.47 0a1.38 1.38 0 0 1 -1.383-1.38c0-.765.623-1.386 1.382-1.386.286 0 .553.091.775.241.01.733.064 1.457.147 2.17a1.38 1.38 0 0 1 -.922.354m30.381-6.064c-.389 0-.763.05-1.12.138-1.377-5.445-5.85-9.659-11.437-10.655a12.513 12.513 0 0 0 -.728-.109c.042-1.366.105-2.942 2.112-4.36l-.317-.802s-3.91 1.216-4.364 4.563c-.195-.91-2.019-2.05-2.92-2.267l-.45.725s1.196.6 1.488 2.25c-5.586.998-10.058 5.211-11.434 10.655a4.685 4.685 0 1 0 -1.121 9.234c.606 0 1.182-.12 1.712-.329a14.364 14.364 0 0 0 1.522 2.833l3.888-2.623-.033-.043c-1.028-1.322-1.657-3.267-1.763-5.205-.117-2.134.405-4.256 1.77-5.503 2.811-2.396 5.873-1.303 7.792.992h.515c1.92-2.295 4.981-3.388 7.793-.992 1.365 1.247 1.886 3.37 1.77 5.503-.106 1.938-.735 3.883-1.764 5.205l-.033.043 3.89 2.623a14.36 14.36 0 0 0 1.52-2.833 4.662 4.662 0 0 0 1.712.33 4.686 4.686 0 0 0 0-9.372m10.114 18.617c0 3.687-3 6.686-6.686 6.686h-37.146a6.693 6.693 0 0 1 -6.686-6.686v-37.147a6.693 6.693 0 0 1 6.686-6.686h37.146a6.694 6.694 0 0 1 6.686 6.686zm-6.686-45.833h-37.146c-4.79 0-8.686 3.896-8.686 8.686v37.147c0 4.79 3.896 8.686 8.686 8.686h37.146c4.79 0 8.686-3.897 8.686-8.686v-37.147c0-4.79-3.896-8.686-8.686-8.686z"/><mask id="b" fill="#fff"><use fill="none" xlink:href="#a"/></mask></defs><g fill="none" fill-rule="evenodd"><path d="m0 0h64v64h-64z"/><use fill="#2db56e" xlink:href="#a"/><g mask="url(#b)"><path d="m0 0h64v64h-64z" fill="#00bf6f"/></g></g></svg>